<svg id="blauweiß" xmlns="http://www.w3.org/2000/svg" xmlns:xlink="http://www.w3.org/1999/xlink" x="0px" y="0px" viewBox="0 0 293.39 289.39" xml:space="preserve" style="height: 80px;"><style type="text/css">
	.st0{fill:#00374e;}
</style><g><path class="st0" d="M 131.504 200.924 L 131.504 88.85 C 131.504 58.026 130.627 50.092 122.692 35.131 C 113.005 15.753 90.113 2.55 66.315 2.55 C 43.42 2.55 20.501 15.753 10.811 35.131 C 2.879 50.092 2 57.147 2 88.85 L 2 200.924 C 2 231.75 2.879 239.683 10.811 254.644 C 20.501 274.021 43.392 287.225 66.315 287.225 C 90.083 287.225 113.005 274.021 122.692 254.644 C 130.627 239.683 131.504 232.629 131.504 200.924 Z" transform="matrix(-1, 0, 0, -1, 133.503998, 289.775018)"></path><path class="st0" d="M 292 200.924 L 292 88.85 C 292 58.026 291.121 50.092 283.189 35.131 C 273.498 15.753 250.608 2.55 227.685 2.55 C 203.916 2.55 180.995 15.753 171.308 35.131 C 163.373 50.092 162.496 57.147 162.496 88.85 L 162.496 200.924 C 162.496 231.75 163.373 239.683 171.308 254.644 C 180.995 274.021 203.887 287.225 227.685 287.225 C 250.58 287.225 273.498 274.021 283.189 254.644 C 291.121 239.683 292 232.629 292 200.924 Z" transform="matrix(-1, 0, 0, -1, 454.496002, 289.775018)"></path><path id="leftDingens" class="st0" d="M 115.727 67.029 C 115.727 94.834 93.715 116.849 65.908 116.849 C 38.677 116.849 16.663 94.834 16.663 67.029 C 16.663 40.376 38.677 17.785 65.331 17.785 C 93.136 17.785 115.727 39.799 115.727 67.029 Z" transform="matrix(-1, 0, 0, -1, 132.389996, 134.633995)" style="fill: rgb(199, 211, 0);"></path><path id="rightDingens" class="st0" d="M 276.556 223.609 C 276.556 251.413 254.545 273.428 226.738 273.428 C 199.507 273.428 177.492 251.413 177.492 223.609 C 177.492 196.955 199.507 174.365 226.161 174.365 C 253.967 174.365 276.556 196.379 276.556 223.609 Z" transform="matrix(-1, 0, 0, -1, 454.048004, 447.793015)" style="fill: rgb(199, 211, 0);"></path></g></svg>