<?xml version="1.0" encoding="UTF-8"?><svg id="Ebene_1" xmlns="http://www.w3.org/2000/svg" viewBox="0 0 512 512"><defs><style>.cls-1{fill:#c7d301;}</style></defs><path class="cls-1" d="M0,132c3.9-8.4,10.46-11.39,19.65-11.14,16.99,.48,34,.14,50.99,.14h4.89c.46-8.07,.21-15.78,1.44-23.24,3.69-22.35,24.26-38.09,47.14-36.66,22.47,1.4,40.93,20.26,41.78,42.83,.21,5.47,.03,10.95,.03,16.97h75.06c0,2.32,0,4.11,0,5.89,0,27.17,0,54.33,0,81.5,0,12.01,5.72,17.61,17.77,17.75,6.31,.08,12.77-.25,18.89,.95,14.71,2.87,24.52,16.73,23.23,31.64-1.3,14.99-13.77,26.83-28.9,27.32-4.83,.16-9.67,.02-14.5,.05-10.37,.07-16.47,6.12-16.49,16.47-.04,27.5-.01,55-.01,82.5,0,1.8,0,3.61,0,5.77-1.94,.09-3.55,.24-5.16,.24-22.5,.01-45,.02-67.5,0-11.41,0-17.21-5.85-17.38-17.14-.09-6.48,.27-13.1-.94-19.4-2.86-14.93-16.98-24.85-32.03-23.34-14.8,1.49-26.45,13.85-26.95,28.74-.17,4.99,0,10-.06,15-.12,9.98-6.27,16.1-16.34,16.13-18.17,.05-36.34-.32-54.49,.16-9.31,.25-16.16-2.49-20.15-11.14v-83c3.99-8.66,10.84-11.92,20.15-11.06,3.96,.36,8,.16,11.99,.01,14.91-.55,27.21-12.13,28.73-26.96,1.54-14.99-8.44-29.1-23.33-32.05-5.64-1.11-11.62-1.2-17.39-.83-9.32,.6-16.16-2.48-20.15-11.12v-83Z"/><path class="cls-1" d="M512,380c-3.98,8.67-10.84,11.4-20.14,11.14-16.81-.48-33.65-.14-50.48-.14h-4.95c-.42,7.88-.15,15.42-1.34,22.72-3.74,23.01-24.54,38.97-47.67,37.16-22.96-1.8-40.95-21.01-41.39-44.25-.09-4.98-.01-9.96-.01-15.48h-74.73v-74.7c41.51-2.52,60.84-36.43,59.7-62.59-1.16-26.63-21.61-56.22-59.68-58.13V121.22c1.54-.08,2.98-.21,4.43-.21,22.66-.01,45.32-.02,67.98,0,11.38,0,17.14,5.86,17.3,17.2,.09,6.48-.27,13.1,.94,19.39,2.85,14.74,16.66,24.56,31.57,23.32,14.98-1.25,26.87-13.7,27.39-28.82,.18-5.16-.01-10.33,.08-15.49,.16-9.13,6.31-15.5,15.36-15.55,19.99-.11,39.99,.01,59.98-.06,7.92-.03,12.34,4.63,15.63,11.02v83c-3.98,8.67-10.85,11.9-20.15,11.06-3.97-.36-8-.15-11.99-.01-14.9,.53-27.25,12.15-28.74,26.95-1.51,15.04,8.42,29.09,23.34,32.05,5.64,1.12,11.62,1.2,17.39,.83,9.31-.6,16.17,2.45,20.15,11.12v83Z"/><path class="cls-1" d="M380,0c8.67,3.96,11.68,10.81,11.1,20.11-.5,7.95-.04,15.96-.12,23.95-.09,9.25-6.43,15.93-14.98,15.93-8.55,0-14.9-6.68-14.98-15.93-.07-7.98,.39-16-.12-23.95-.6-9.31,2.47-16.13,11.11-20.11h8Z"/><path class="cls-1" d="M132,512c-8.64-3.98-11.7-10.8-11.1-20.11,.51-7.95,.05-15.97,.12-23.95,.08-9.25,6.42-15.93,14.98-15.93,8.55,0,14.89,6.67,14.98,15.92,.08,7.99-.38,16,.12,23.95,.59,9.31-2.49,16.12-11.1,20.11h-8Z"/><path class="cls-1" d="M331.18,74.49c-.65,7.5-3.06,12.16-8.55,14.84-5.86,2.86-11.69,2.33-16.28-2.04-10.85-10.34-21.49-20.92-31.78-31.81-5.4-5.71-4.64-14.47,.73-19.97,5.49-5.61,14.47-6.38,20.34-.82,10.88,10.31,21.42,20.98,31.75,31.84,2.22,2.34,2.95,6.11,3.78,7.95Z"/><path class="cls-1" d="M481.9,46.73c-1.87,3.4-3.13,7.38-5.71,10.11-9.5,10.03-19.36,19.75-29.26,29.4-6.47,6.3-15.56,6.3-21.51,.35-5.95-5.94-5.96-15.07,.33-21.5,9.66-9.89,19.47-19.64,29.32-29.34,4.84-4.76,10.6-6.08,16.98-3.4,5.48,2.3,9.01,7.93,9.85,14.39Z"/><path class="cls-1" d="M47.36,482.16c-7.33-.61-11.99-3.02-14.69-8.49-2.87-5.84-2.38-11.69,1.99-16.28,10.34-10.85,20.92-21.49,31.81-31.79,5.71-5.4,14.47-4.67,19.98,.68,5.49,5.33,6.52,14.21,1.16,19.93-10.47,11.17-21.43,21.9-32.52,32.47-2.21,2.11-5.88,2.69-7.73,3.48Z"/><path class="cls-1" d="M241.18,465.49c-.65,7.51-3.06,12.17-8.55,14.85-5.86,2.86-11.69,2.33-16.28-2.04-10.85-10.34-21.49-20.92-31.78-31.81-5.4-5.71-4.64-14.47,.73-19.97,5.49-5.61,14.47-6.38,20.34-.82,10.88,10.31,21.42,20.98,31.75,31.84,2.22,2.34,2.95,6.11,3.78,7.95Z"/></svg>